<svg viewBox="0 0 600 360" xmlns="http://www.w3.org/2000/svg" role="img" aria-label="AgendaAI — Agenda + WhatsApp">
<defs><clipPath id="r"><rect width="600" height="360" rx="18"/></clipPath></defs>
<g clip-path="url(#r)">
<rect width="600" height="360" fill="#F6FAFB"/>
<rect width="600" height="120" fill="#1c8a4e"/>
<rect width="600" height="120" fill="#000" opacity="0.06"/>
<g transform="translate(36,38)"><rect width="44" height="44" rx="12.32" fill="#2DD4A8"/><path d="M7.04 22.880000000000003 h7.04 l3.96 -9.68 l5.279999999999999 18.48 l4.4 -12.32 l2.6399999999999997 3.96 h7.04" fill="none" stroke="#062a33" stroke-width="3.74" stroke-linecap="round" stroke-linejoin="round"/></g>
<text x="94" y="68" font-family="system-ui,-apple-system,Segoe UI,Roboto" font-size="26" font-weight="800" fill="#fff">AgendaAI</text>
<text x="95" y="92" font-family="system-ui,-apple-system,Segoe UI,Roboto" font-size="14" fill="#ffffff" opacity="0.82">Agenda + WhatsApp</text>
<rect x="40" y="150" width="520" height="40" rx="10" fill="#fff" stroke="#dbe8ea"/><rect x="40" y="150" width="6" height="40" rx="3" fill="#2563a8"/><circle cx="70" cy="170" r="6" fill="#2563a8" opacity=".4"/><rect x="90" y="159" width="150" height="10" rx="5" fill="#0E2A31" opacity=".5"/><rect x="90" y="175" width="90" height="8" rx="4" fill="#0E2A31" opacity=".2"/><rect x="470" y="161" width="70" height="18" rx="9" fill="#25D366" opacity=".85"/><rect x="40" y="200" width="520" height="40" rx="10" fill="#fff" stroke="#dbe8ea"/><rect x="40" y="200" width="6" height="40" rx="3" fill="#6b46c1"/><circle cx="70" cy="220" r="6" fill="#6b46c1" opacity=".4"/><rect x="90" y="209" width="150" height="10" rx="5" fill="#0E2A31" opacity=".5"/><rect x="90" y="225" width="90" height="8" rx="4" fill="#0E2A31" opacity=".2"/><rect x="470" y="211" width="70" height="18" rx="9" fill="#25D366" opacity=".85"/><rect x="40" y="250" width="520" height="40" rx="10" fill="#fff" stroke="#dbe8ea"/><rect x="40" y="250" width="6" height="40" rx="3" fill="#1c8a4e"/><circle cx="70" cy="270" r="6" fill="#1c8a4e" opacity=".4"/><rect x="90" y="259" width="150" height="10" rx="5" fill="#0E2A31" opacity=".5"/><rect x="90" y="275" width="90" height="8" rx="4" fill="#0E2A31" opacity=".2"/><rect x="470" y="261" width="70" height="18" rx="9" fill="#25D366" opacity=".85"/><rect x="40" y="300" width="520" height="40" rx="10" fill="#fff" stroke="#dbe8ea"/><rect x="40" y="300" width="6" height="40" rx="3" fill="#c97a17"/><circle cx="70" cy="320" r="6" fill="#c97a17" opacity=".4"/><rect x="90" y="309" width="150" height="10" rx="5" fill="#0E2A31" opacity=".5"/><rect x="90" y="325" width="90" height="8" rx="4" fill="#0E2A31" opacity=".2"/><rect x="470" y="311" width="70" height="18" rx="9" fill="#25D366" opacity=".85"/>
</g>
<rect x="1" y="1" width="598" height="358" rx="18" fill="none" stroke="#dbe8ea"/>
</svg>