<svg viewBox="0 0 600 360" xmlns="http://www.w3.org/2000/svg" role="img" aria-label="FlashMed — Flashcards + repetição espaçada">
<defs><clipPath id="r"><rect width="600" height="360" rx="18"/></clipPath></defs>
<g clip-path="url(#r)">
<rect width="600" height="360" fill="#F6FAFB"/>
<rect width="600" height="120" fill="#c97a17"/>
<rect width="600" height="120" fill="#000" opacity="0.06"/>
<g transform="translate(36,38)"><rect width="44" height="44" rx="12.32" fill="#2DD4A8"/><path d="M7.04 22.880000000000003 h7.04 l3.96 -9.68 l5.279999999999999 18.48 l4.4 -12.32 l2.6399999999999997 3.96 h7.04" fill="none" stroke="#062a33" stroke-width="3.74" stroke-linecap="round" stroke-linejoin="round"/></g>
<text x="94" y="68" font-family="system-ui,-apple-system,Segoe UI,Roboto" font-size="26" font-weight="800" fill="#fff">FlashMed</text>
<text x="95" y="92" font-family="system-ui,-apple-system,Segoe UI,Roboto" font-size="14" fill="#ffffff" opacity="0.82">Flashcards + repetição espaçada</text>
<rect x="120" y="150" width="400" height="170" rx="16" fill="#fff" stroke="#dbe8ea"/><rect x="120" y="150" width="400" height="40" rx="16" fill="#c97a17" opacity=".15"/><text x="140" y="176" font-family="system-ui" font-size="13" font-weight="700" fill="#c97a17">Cardiologia — básico</text><rect x="150" y="215" width="340" height="12" rx="6" fill="#0E2A31" opacity=".3"/><rect x="150" y="245" width="280" height="12" rx="6" fill="#0E2A31" opacity=".18"/><rect x="180" y="285" width="100" height="22" rx="11" fill="#c97a17" opacity=".25"/><rect x="360" y="285" width="100" height="22" rx="11" fill="#14794f" opacity=".3"/>
</g>
<rect x="1" y="1" width="598" height="358" rx="18" fill="none" stroke="#dbe8ea"/>
</svg>